<mxfile host="app.diagrams.net" agent="5.0" version="24.7.17">
  <diagram name="AI Scheduling Challenges" id="challenges">
    <mxGraphModel dx="1400" dy="800" grid="1" gridSize="10" guides="1" tooltips="1" connect="1" arrows="1" fold="1" page="1" pageScale="1" pageWidth="1400" pageHeight="800" math="0" shadow="0">
      <root>
        <mxCell id="0" />
        <mxCell id="1" parent="0" />
        
        <mxCell id="bg" value="" style="rounded=0;whiteSpace=wrap;html=1;fillColor=#f8f9fa;strokeColor=none;" vertex="1" parent="1">
          <mxGeometry x="20" y="20" width="1360" height="760" as="geometry" />
        </mxCell>
        
        <mxCell id="title" value="AI Scheduling Challenges in Heterogeneous GPU Clusters" style="text;html=1;strokeColor=none;fillColor=none;align=center;verticalAlign=middle;whiteSpace=wrap;rounded=0;fontSize=24;fontStyle=1;fontColor=#2c3e50;" vertex="1" parent="1">
          <mxGeometry x="400" y="50" width="600" height="40" as="geometry" />
        </mxCell>
        
        <!-- Problem 1: High Resource Cost -->
        <mxCell id="problem1_bg" value="" style="rounded=1;whiteSpace=wrap;html=1;fillColor=#ffffff;strokeColor=#e74c3c;strokeWidth=3;shadow=1;" vertex="1" parent="1">
          <mxGeometry x="80" y="140" width="360" height="300" as="geometry" />
        </mxCell>
        
        <mxCell id="icon1_bg" value="" style="rounded=1;whiteSpace=wrap;html=1;fillColor=#fdebeb;strokeColor=#e74c3c;strokeWidth=2;" vertex="1" parent="1">
          <mxGeometry x="200" y="170" width="120" height="80" as="geometry" />
        </mxCell>
        
        <mxCell id="money_icon" value="$$$" style="text;html=1;strokeColor=none;fillColor=none;align=center;verticalAlign=middle;whiteSpace=wrap;rounded=0;fontSize=36;fontStyle=1;fontColor=#e74c3c;" vertex="1" parent="1">
          <mxGeometry x="220" y="185" width="40" height="40" as="geometry" />
        </mxCell>
        
        <mxCell id="down_arrow" value="â†“" style="text;html=1;strokeColor=none;fillColor=none;align=center;verticalAlign=middle;whiteSpace=wrap;rounded=0;fontSize=30;fontColor=#e74c3c;fontStyle=1;" vertex="1" parent="1">
          <mxGeometry x="270" y="190" width="30" height="30" as="geometry" />
        </mxCell>
        
        <mxCell id="problem1_title" value="Problem 1: High Resource Cost" style="text;html=1;strokeColor=none;fillColor=none;align=center;verticalAlign=middle;whiteSpace=wrap;rounded=0;fontSize=18;fontStyle=1;fontColor=#e74c3c;" vertex="1" parent="1">
          <mxGeometry x="120" y="270" width="280" height="30" as="geometry" />
        </mxCell>
        
        <mxCell id="problem1_desc" value="High-end GPUs (A100/H100) are expensive. Large model inference and training consume massive resources, leading to high service costs." style="text;html=1;strokeColor=none;fillColor=none;align=left;verticalAlign=middle;whiteSpace=wrap;rounded=0;fontSize=14;fontColor=#2c3e50;spacingLeft=10;spacingRight=10;" vertex="1" parent="1">
          <mxGeometry x="100" y="320" width="320" height="100" as="geometry" />
        </mxCell>
        
        <!-- Problem 2: Heterogeneous Resource Utilization -->
        <mxCell id="problem2_bg" value="" style="rounded=1;whiteSpace=wrap;html=1;fillColor=#ffffff;strokeColor=#f39c12;strokeWidth=3;shadow=1;" vertex="1" parent="1">
          <mxGeometry x="520" y="140" width="360" height="300" as="geometry" />
        </mxCell>
        
        <mxCell id="icon2_bg" value="" style="rounded=1;whiteSpace=wrap;html=1;fillColor=#fef9e7;strokeColor=#f39c12;strokeWidth=2;" vertex="1" parent="1">
          <mxGeometry x="640" y="170" width="120" height="80" as="geometry" />
        </mxCell>
        
        <mxCell id="gpu1" value="A100" style="rounded=0;whiteSpace=wrap;html=1;fillColor=#27ae60;strokeColor=#229954;fontSize=10;fontStyle=1;fontColor=#ffffff;" vertex="1" parent="1">
          <mxGeometry x="650" y="185" width="25" height="20" as="geometry" />
        </mxCell>
        
        <mxCell id="gpu2" value="V100" style="rounded=0;whiteSpace=wrap;html=1;fillColor=#95a5a6;strokeColor=#7f8c8d;fontSize=10;fontStyle=1;fontColor=#ffffff;opacity=70;" vertex="1" parent="1">
          <mxGeometry x="680" y="185" width="25" height="20" as="geometry" />
        </mxCell>
        
        <mxCell id="gpu3" value="T4" style="rounded=0;whiteSpace=wrap;html=1;fillColor=#95a5a6;strokeColor=#7f8c8d;fontSize=10;fontStyle=1;fontColor=#ffffff;opacity=70;" vertex="1" parent="1">
          <mxGeometry x="710" y="185" width="25" height="20" as="geometry" />
        </mxCell>
        
        <mxCell id="gpu4" value="K80" style="rounded=0;whiteSpace=wrap;html=1;fillColor=#95a5a6;strokeColor=#7f8c8d;fontSize=10;fontStyle=1;fontColor=#ffffff;opacity=70;" vertex="1" parent="1">
          <mxGeometry x="650" y="215" width="25" height="20" as="geometry" />
        </mxCell>
        
        <mxCell id="gpu5" value="RTX" style="rounded=0;whiteSpace=wrap;html=1;fillColor=#95a5a6;strokeColor=#7f8c8d;fontSize=10;fontStyle=1;fontColor=#ffffff;opacity=70;" vertex="1" parent="1">
          <mxGeometry x="680" y="215" width="25" height="20" as="geometry" />
        </mxCell>
        
        <mxCell id="idle_label" value="IDLE" style="text;html=1;strokeColor=none;fillColor=none;align=center;verticalAlign=middle;whiteSpace=wrap;rounded=0;fontSize=12;fontColor=#95a5a6;fontStyle=1;" vertex="1" parent="1">
          <mxGeometry x="710" y="215" width="30" height="20" as="geometry" />
        </mxCell>
        
        <mxCell id="problem2_title" value="Problem 2: Heterogeneous Resource Underutilization" style="text;html=1;strokeColor=none;fillColor=none;align=center;verticalAlign=middle;whiteSpace=wrap;rounded=0;fontSize=18;fontStyle=1;fontColor=#f39c12;" vertex="1" parent="1">
          <mxGeometry x="560" y="270" width="280" height="30" as="geometry" />
        </mxCell>
        
        <mxCell id="problem2_desc" value="Legacy and mid-range GPUs in clusters cannot effectively support large model tasks, causing severe resource waste and digital divide." style="text;html=1;strokeColor=none;fillColor=none;align=left;verticalAlign=middle;whiteSpace=wrap;rounded=0;fontSize=14;fontColor=#2c3e50;spacingLeft=10;spacingRight=10;" vertex="1" parent="1">
          <mxGeometry x="540" y="320" width="320" height="100" as="geometry" />
        </mxCell>
        
        <!-- Problem 3: Scheduling Objective Conflicts -->
        <mxCell id="problem3_bg" value="" style="rounded=1;whiteSpace=wrap;html=1;fillColor=#ffffff;strokeColor=#3498db;strokeWidth=3;shadow=1;" vertex="1" parent="1">
          <mxGeometry x="960" y="140" width="360" height="300" as="geometry" />
        </mxCell>
        
        <mxCell id="icon3_bg" value="" style="rounded=1;whiteSpace=wrap;html=1;fillColor=#ebf3fd;strokeColor=#3498db;strokeWidth=2;" vertex="1" parent="1">
          <mxGeometry x="1080" y="170" width="120" height="80" as="geometry" />
        </mxCell>
        
        <mxCell id="scale_base" value="" style="rounded=0;whiteSpace=wrap;html=1;fillColor=#34495e;strokeColor=#2c3e50;" vertex="1" parent="1">
          <mxGeometry x="1135" y="235" width="10" height="10" as="geometry" />
        </mxCell>
        
        <mxCell id="scale_beam" value="" style="rounded=0;whiteSpace=wrap;html=1;fillColor=#34495e;strokeColor=#2c3e50;" vertex="1" parent="1">
          <mxGeometry x="1105" y="225" width="70" height="3" as="geometry" />
        </mxCell>
        
        <mxCell id="throughput" value="Throughput" style="rounded=0;whiteSpace=wrap;html=1;fillColor=#e74c3c;strokeColor=#c0392b;fontSize=10;fontStyle=1;fontColor=#ffffff;" vertex="1" parent="1">
          <mxGeometry x="1095" y="210" width="40" height="15" as="geometry" />
        </mxCell>
        
        <mxCell id="latency" value="Latency" style="rounded=0;whiteSpace=wrap;html=1;fillColor=#27ae60;strokeColor=#229954;fontSize=10;fontStyle=1;fontColor=#ffffff;" vertex="1" parent="1">
          <mxGeometry x="1150" y="195" width="35" height="15" as="geometry" />
        </mxCell>
        
        <mxCell id="scale_left" value="" style="endArrow=none;html=1;rounded=0;strokeWidth=2;strokeColor=#34495e;" edge="1" parent="1">
          <mxGeometry width="50" height="50" relative="1" as="geometry">
            <mxPoint x="1120" y="226" as="sourcePoint" />
            <mxPoint x="1115" y="225" as="targetPoint" />
          </mxGeometry>
        </mxCell>
        
        <mxCell id="scale_right" value="" style="endArrow=none;html=1;rounded=0;strokeWidth=2;strokeColor=#34495e;" edge="1" parent="1">
          <mxGeometry width="50" height="50" relative="1" as="geometry">
            <mxPoint x="1160" y="226" as="sourcePoint" />
            <mxPoint x="1170" y="210" as="targetPoint" />
          </mxGeometry>
        </mxCell>
        
        <mxCell id="problem3_title" value="Problem 3: Scheduling Objective Conflicts" style="text;html=1;strokeColor=none;fillColor=none;align=center;verticalAlign=middle;whiteSpace=wrap;rounded=0;fontSize=18;fontStyle=1;fontColor=#3498db;" vertex="1" parent="1">
          <mxGeometry x="1000" y="270" width="280" height="30" as="geometry" />
        </mxCell>
        
        <mxCell id="problem3_desc" value="How to simultaneously satisfy training tasks high throughput requirements and inference tasks low latency SLO in a unified scheduling framework?" style="text;html=1;strokeColor=none;fillColor=none;align=left;verticalAlign=middle;whiteSpace=wrap;rounded=0;fontSize=14;fontColor=#2c3e50;spacingLeft=10;spacingRight=10;" vertex="1" parent="1">
          <mxGeometry x="980" y="320" width="320" height="100" as="geometry" />
        </mxCell>
        
        <!-- Core Scientific Problem -->
        <mxCell id="core_problem_bg" value="" style="rounded=1;whiteSpace=wrap;html=1;fillColor=#2c3e50;strokeColor=#34495e;strokeWidth=3;shadow=1;" vertex="1" parent="1">
          <mxGeometry x="200" y="500" width="1000" height="120" as="geometry" />
        </mxCell>
        
        <mxCell id="core_problem_title" value="Core Scientific Problem" style="text;html=1;strokeColor=none;fillColor=none;align=center;verticalAlign=middle;whiteSpace=wrap;rounded=0;fontSize=20;fontStyle=1;fontColor=#ecf0f1;" vertex="1" parent="1">
          <mxGeometry x="600" y="520" width="200" height="30" as="geometry" />
        </mxCell>
        
        <mxCell id="core_problem_desc" value="How to design a heterogeneous-aware co-scheduler that maximizes cluster resource utilization and minimizes hardware costs while satisfying diverse performance objectives of mixed AI workloads?" style="text;html=1;strokeColor=none;fillColor=none;align=center;verticalAlign=middle;whiteSpace=wrap;rounded=0;fontSize=16;fontColor=#ecf0f1;spacingLeft=20;spacingRight=20;" vertex="1" parent="1">
          <mxGeometry x="220" y="560" width="960" height="50" as="geometry" />
        </mxCell>
        
        <!-- Connecting Arrows -->
        <mxCell id="arrow1" value="" style="endArrow=classic;html=1;rounded=1;strokeWidth=3;strokeColor=#95a5a6;curved=1;" edge="1" parent="1">
          <mxGeometry width="50" height="50" relative="1" as="geometry">
            <mxPoint x="260" y="460" as="sourcePoint" />
            <mxPoint x="400" y="510" as="targetPoint" />
          </mxGeometry>
        </mxCell>
        
        <mxCell id="arrow2" value="" style="endArrow=classic;html=1;rounded=1;strokeWidth=3;strokeColor=#95a5a6;curved=1;" edge="1" parent="1">
          <mxGeometry width="50" height="50" relative="1" as="geometry">
            <mxPoint x="700" y="460" as="sourcePoint" />
            <mxPoint x="700" y="510" as="targetPoint" />
          </mxGeometry>
        </mxCell>
        
        <mxCell id="arrow3" value="" style="endArrow=classic;html=1;rounded=1;strokeWidth=3;strokeColor=#95a5a6;curved=1;" edge="1" parent="1">
          <mxGeometry width="50" height="50" relative="1" as="geometry">
            <mxPoint x="1140" y="460" as="sourcePoint" />
            <mxPoint x="1000" y="510" as="targetPoint" />
          </mxGeometry>
        </mxCell>
        
        <mxCell id="footer" value="Created by Jinghao-coding | 2025-06-14" style="text;html=1;strokeColor=none;fillColor=none;align=center;verticalAlign=middle;whiteSpace=wrap;rounded=0;fontSize=12;fontColor=#95a5a6;fontStyle=2;" vertex="1" parent="1">
          <mxGeometry x="600" y="700" width="200" height="20" as="geometry" />
        </mxCell>
        
      </root>
    </mxGraphModel>
  </diagram>
</mxfile>
